# xmcd
#
# Track frame offsets:
#	150
#	12397
#	30357
#	49727
#	62517
#	79955
#	96070
#	108145
#	123030
#	137292
#	150365
#	163035
#	179055
#	195937
#	212975
#	230832
#	248557
#	272170
#
# Disc length: 3850
#
# Revision: 4
# Processed by: cddbd v1.5.1PL0 Copyright (c) Steve Scherf et al.
# Submitted via: OrangeCD 5.2
# Normalized: r3:DSETVAR1
#
DISCID=e30f0812
DTITLE=Various Artist - Saturday Night At Duck's Too (18 More Shaggin' Dance Favorites)
DYEAR=1994
DGENRE=Blues
TTITLE0=Billy Price andThe Keystone Rythm Band - Steppin' Up In Class
TTITLE1=The Boss Man - Farther Up The Road
TTITLE2=Big Joe Duskin - So Long
TTITLE3=The Lamont Cranstone Band - Rock Awhile
TTITLE4=Long John Baldry - One Step Ahead
TTITLE5=KWS Band - Hold Back The Night
TTITLE6=Amos Garrett - Got To Get You Off My Mind
TTITLE7=Roger Howse - The Drifter
TTITLE8=Doug Jay - Honey Love
TTITLE9=Billy Peek - Home Grown Rocker
TTITLE10=Lloyd Jones Struggle - You Ought To Know Better
TTITLE11=Brent Sam Parkin - Satellite Dish
TTITLE12=Big Joe Duskin - Oodle Addie
TTITLE13=The Boss Man - Real Good Lover
TTITLE14=Ed Vadas´ Fabulous Heavyweights - Honky Tonk
TTITLE15=Jimmy Ley - Backed Up Baby
TTITLE16=Dan Doran Band - She Walks Right In
TTITLE17=Pete Johnson - Somebody
EXTD=
EXTT0=
EXTT1=
EXTT2=
EXTT3=
EXTT4=
EXTT5=
EXTT6=
EXTT7=
EXTT8=
EXTT9=
EXTT10=
EXTT11=
EXTT12=
EXTT13=
EXTT14=
EXTT15=
EXTT16=
EXTT17=
PLAYORDER=
